<svg xmlns="http://www.w3.org/2000/svg" width="72" height="72" viewBox="0, 0, 72, 72"><path d="M51.206 38.206H32.853l-4.833 11.76c-.757 2.087-1.98 3.975-3.573 5.52-1.508 1.155-3.38 1.73-5.276 1.62-2.24.135-4.46-.526-6.262-1.867q-2.252-1.868-2.252-5.934l.77-.385q0 3.958 1.977 5.688c1.612 1.25 3.625 1.865 5.66 1.73 1.213.04 2.42-.176 3.544-.633 1.01-.487 1.875-1.237 2.5-2.17.927-1.396 1.7-2.888 2.307-4.45l13.79-33.514H28.35q-4.395 0-6.648 1.922-2.254 1.926-2.254 5.99c-.08 1.856.528 3.675 1.704 5.11 1.24 1.38 2.903 2.306 4.727 2.637l-.605.604c-1.908-.337-3.643-1.316-4.917-2.775-1.25-1.584-1.883-3.564-1.786-5.578q0-4.34 2.416-6.51 2.417-2.17 7.09-2.17h14.448L57.47 51.06h-.933zm-.33-.77l-7.913-19.12-.933-2.525-.934 2.473-7.912 19.175h17.69z"/></svg>